PathFileType	4	(X/Y/Z)	Patient4_TMGait_0pt6_01_left_26.trc.trc
DataRate	CameraRate	NumFrames	NumMarkers	Units	OrigDataRate	OrigDataStartFrame	OrigNumFrames
81.395348837209	81.395348837209	4	33	mm	81.395348837209	124	       141
Frame#	Time	Sacral			L.Shoulder			Chest			R.Shoulder			Neck			R.ASIS			L.ASIS			R.Thigh.Superior			R.Thigh.Lateral			R.Thigh.Inferior			R.Patella			L.Thigh.Superior			L.Thigh.Lateral			L.Thigh.Inferior			L.Patella			L.Shank.Superior			L.Shank.Lateral			L.Shank.Inferior			R.Shank.Superior			R.Shank.Lateral			R.Shank.Inferior			R.Heel			R.Midfoot.Superior			R.Midfoot.Lateral			R.Toe			L.Heel			L.Midfoot.Lateral			L.Midfoot.Superior			L.Toe			L.Elbow			L.Wrist			R.Elbow			R.Wrist			
		X1	Y1	Z1	X2	Y2	Z2	X3	Y3	Z3	X4	Y4	Z4	X5	Y5	Z5	X6	Y6	Z6	X7	Y7	Z7	X8	Y8	Z8	X9	Y9	Z9	X10	Y10	Z10	X11	Y11	Z11	X12	Y12	Z12	X13	Y13	Z13	X14	Y14	Z14	X15	Y15	Z15	X16	Y16	Z16	X17	Y17	Z17	X18	Y18	Z18	X19	Y19	Z19	X20	Y20	Z20	X21	Y21	Z21	X22	Y22	Z22	X23	Y23	Z23	X24	Y24	Z24	X25	Y25	Z25	X26	Y26	Z26	X27	Y27	Z27	X28	Y28	Z28	X29	Y29	Z29	X30	Y30	Z30	X31	Y31	Z31	X32	Y32	Z32	X33	Y33	Z33	

124	33.141142857143	746.562464176260	1003.540543698074	510.357830481456	888.674866556447	1431.882260982178	323.509088827857	1015.819522287285	1360.676020691471	465.090921407219	958.521374967268	1428.701885160341	649.967893263007	892.595944549753	1487.194309575359	479.404914770622	976.628732164607	931.289226306566	608.405139945570	945.612097133633	953.868260859479	333.681353740356	964.486167584777	717.794256959732	583.572554423495	855.112751654610	628.008592594807	643.327434564082	913.143252706727	560.308181074488	563.660712101542	889.919575224830	475.000862162741	566.662957123915	1021.237513148874	769.806923907809	369.146357247614	966.451565900125	636.546777974864	301.925843134935	1070.124466564922	579.235340706429	361.615438003248	1091.615856407524	511.701926229924	364.365479135761	1076.084612535582	437.549484389980	357.263928202328	1007.726084283156	307.081874026417	312.957736369703	1091.865259028992	209.568973920780	372.970382515936	847.113744411126	392.978939929710	571.915789943121	758.076808130825	302.110435618924	631.658249082641	783.606520058094	202.656490651648	566.386870527062	628.587057878054	47.917733759328	531.022628831016	802.039742173989	97.216491906929	568.884116918831	711.163354013869	37.679977965704	605.099519023234	919.628298520943	39.089337138974	596.762809213185	1001.794282428472	39.836276240827	419.969225226652	1073.440318529153	38.627376191938	337.504373913732	1150.603783336585	108.139423989308	356.657606659552	1281.154337078236	66.773993546113	327.612594177154	758.201274201445	1097.720954771651	237.905386352640	724.356781851605	840.427255920140	253.611774732316	1118.288491665275	1124.487768256331	754.052023407471	1363.346897192042	1169.649662472229	701.911574507774	
125	33.153428571429	747.574361944314	1002.013127801606	507.431453629323	888.810683805018	1430.481096158967	321.107014306314	1015.629496775297	1360.188869387257	463.369111094098	957.054154762639	1428.008343951920	648.071122466154	892.008042963582	1486.146963358339	477.036991255411	977.623387982515	930.140259015867	606.864820386600	947.917837341064	952.873720831161	332.161191864458	965.600889420274	716.401416467236	582.090422739266	855.839738939438	626.710260209160	641.379673806002	914.088542137941	558.644324266377	561.996003237724	890.334057428542	472.430474977717	564.919110105940	1023.974427017701	768.318526798905	368.628119252873	968.364288614909	635.469170758967	301.805698913477	1071.242027501389	577.776078548730	362.401174670987	1090.978121927484	508.992365929936	366.033871274009	1074.638334866506	434.459993688025	358.568169206548	1004.040996544677	305.356460474447	313.281950450058	1084.870591038473	206.063880103000	375.053043777482	845.808941273442	391.139211806731	570.342078837962	755.156878204542	302.074293663333	630.491202601354	778.607392880294	202.015511733353	565.551213204238	621.250444040744	48.913216374943	531.011051864183	794.979471835817	97.260645077452	568.783610182755	703.814027002685	38.085080911323	605.005726207100	912.300453276948	38.822730582657	596.828992536111	989.596003580606	38.857589357585	420.857731496977	1061.712156514911	36.942316350290	338.658081011294	1140.753802832767	103.922343844222	359.488415318500	1270.771203419006	59.274110230817	330.582218430680	761.706011750979	1094.968215884272	234.369119523961	731.071197756522	837.172413688264	248.608952395835	1114.819995288339	1122.195008482888	752.971081831324	1360.270278881298	1166.331363807504	701.473659085340	
126	33.165714285714	748.561731970513	1000.685825618115	504.441092483305	889.098616274386	1429.259481152531	318.598664197170	1015.492171370523	1359.934106716028	461.651802175787	955.533843544900	1427.593208674320	646.133491967512	891.509006272358	1485.353849394965	474.556406137157	978.627074374733	929.203691838814	605.223863202387	950.189659879909	952.160892452327	330.641187490214	967.095447635729	715.266118665096	580.447188991717	857.148506285216	625.485224413172	639.301613241415	915.803483807805	557.117801496698	560.263255359688	891.665643114425	469.763412579008	563.310677934995	1026.422777774773	766.874686017735	368.078201232110	970.093573144417	634.694290591441	301.299937680464	1071.991224312321	576.479160859870	363.056336388816	1090.080565484511	506.691768562774	367.384188845440	1073.091915347601	431.909099638566	359.464687375102	1000.752530637703	303.999915150790	313.078887776787	1078.509208737905	203.261692287259	376.607406991760	845.140688827708	389.376764152099	568.858003051497	752.652476829077	302.370850583202	629.312689361775	773.964608797200	201.637546225435	564.823153165784	614.000554443907	50.530599004974	531.051968502077	788.146431698702	97.356610638164	568.762226517853	696.518657003555	38.755027603833	604.940646480823	904.982631102477	38.537235823388	596.873101082631	978.708026290885	38.123735959830	421.349718555506	1051.220018498651	35.823365990663	339.362259774146	1131.658253752059	100.778272023995	361.698255258842	1261.260541684950	53.676381004339	332.882900380159	766.003807342636	1092.151533471864	230.657817630809	738.784623145660	833.856373320174	243.305001388132	1110.568271710499	1119.696992026035	751.963968207473	1356.681696326266	1161.632068158855	701.218520978766	
127	33.178000000000	749.505223899753	999.668733643440	501.444689242378	889.527904918617	1428.322014444462	316.020685085063	1015.410353498177	1359.969836012370	459.941445349457	954.027341996973	1427.538004181366	644.154465847120	891.101878924403	1484.893805032562	471.994522683238	979.595923126214	928.573375973658	603.470623426529	952.335992270395	951.814276387966	329.079394579362	968.934666323130	714.481931565782	578.632351890107	859.077047293953	624.399859176640	637.144546238455	918.356107245220	555.812511940857	558.516142692954	894.024197795188	467.077830887560	561.967307536244	1028.494671812854	765.622295132634	367.391631833388	971.541200164392	634.274341829120	300.389868111570	1072.311922402226	575.420296911820	363.427629762291	1088.914879603275	504.882771775325	368.262215464726	1071.413028742669	429.944365426205	359.896374446622	997.774406367686	303.051175184325	312.392504366859	1072.745621636428	201.191942363671	377.607527339488	845.215062545713	387.770573071288	567.565273779021	750.649774864730	303.117096290335	628.189072448624	769.779579989924	201.633538460118	564.280435745556	606.911847993805	52.977554596947	531.171196693053	781.627910870822	97.543002188504	568.863918439190	689.317986398035	39.802926350627	604.922570270471	897.673082998258	38.235726253761	596.889093102181	969.152459786853	37.642633655430	421.528854355922	1041.962699495828	35.202983261983	339.684207315352	1123.336312881751	98.679303253691	363.251930319126	1252.637615819537	49.934804250975	334.475596353495	771.132555592186	1089.393107116707	226.806281260814	747.517034405786	830.619732260631	237.758122848428	1105.513932785350	1117.108098729440	751.009681016789	1352.527038654329	1155.535587020566	701.123882114503	
